# xmcd CD database file
#
# Track frame offsets:
#	150
#	18920
#	37057
#	54910
#	74602
#	91302
#	115042
#	129912
#	158657
#	187055
#	215882
#
# Disc length: 3108 seconds
#
# Revision: 0
# Processed by: cddbd v1.4PL0 Copyright (c) Steve Scherf et al.
# Submitted via: Feurio! 1.65 - http://www.feurio.com
#
DISCID=970c220b
DTITLE=Michael Katon - Bad Machine
DYEAR=2002
DGENRE=Blues Rock
TTITLE0=American McMofo
TTITLE1=Rock 'n' Roll Roll, Whiskey, Blood 'n' Guts
TTITLE2=The Pierced, Tattoed And Twenty Somethin' Boogie
TTITLE3=Bad Machine
TTITLE4=Sugar Pie
TTITLE5=Red Moon Risin'
TTITLE6=Wild Ass
TTITLE7=The Lost T.V. Clicker Blues
TTITLE8=Lowdown In Swamptown
TTITLE9=Boogiefied
TTITLE10=The Detroit River Dirty Blues
EXTD=Wild Ass Records
EXTT0=
EXTT1=
EXTT2=
EXTT3=
EXTT4=
EXTT5=
EXTT6=
EXTT7=
EXTT8=
EXTT9=
EXTT10=
PLAYORDER=
